{"title":"7th Heaven 4x22 Season Finale DVDRip PROPER RESEED *$HR!MP!*","uid":5122019,"size":366086144,"categoryP":"video","categoryS":"tv_shows","magnet":"?xt=urn:btih:2ea0a16a67ff35a6eff865598215bfb6925bb218&amp;dn=7th+Heaven+4x22+Season+Finale+DVDRip+PROPER+RESEED+%2A%24HR%21MP%21%2A&amp;tr=udp%3A%2F%2Ftracker.openbittorrent.com%3A80&amp;tr=udp%3A%2F%2Fopen.demonii.com%3A1337&amp;tr=udp%3A%2F%2Ftracker.coppersurfer.tk%3A6969&amp;tr=udp%3A%2F%2Fexodus.desync.com%3A6969","seeders":1,"leechers":0,"uploader":"H0bbes99","files":1,"time":1255398490,"description":"Fresh DVD Rip RESEED, properly encoded.\nThis is posted based on the comment about this other torrent over here:\nhttp://thepiratebay.se/torrent/3988714/\nThe opening poster commented that the last 6 minutes were missing.\n\nThis is a reseed of this other torrent here:\nhttp://thepiratebay.se/torrent/5120370\n\n\nMediaInfo:\n\nComplete name                    : 7th Heaven S04e22_PROPER_RESEED_SHR!MP!.avi\nFormat                           : AVI\nFormat/Info                      : Audio Video Interleave\nFile size                        : 349 MiB\nDuration                         : 44mn 31s\nOverall bit rate                 : 1 096 Kbps\nWriting application              : VirtualDubMod 1.5.4.1 (build 2178/release)\nWriting library                  : VirtualDubMod build 2178/release\n\nVideo\nID                               : 0\nFormat                           : MPEG-4 Visual\nFormat profile                   : AdvancedSimple@L5\nFormat settings, BVOP            : Yes\nFormat settings, QPel            : No\nFormat settings, GMC             : No warppoints\nFormat settings, Matrix          : Custom\nCodec ID                         : XVID\nCodec ID/Hint                    : XviD\nDuration                         : 44mn 31s\nBit rate                         : 976 Kbps\nWidth                            : 640 pixels\nHeight                           : 480 pixels\nDisplay aspect ratio             : 4:3\nFrame rate                       : 23.976 fps\nResolution                       : 24 bits\nColorimetry                      : 4:2:0\nScan type                        : Progressive\nBits/(Pixel*Frame)               : 0.133\nStream size                      : 311 MiB (89%)\nWriting library                  : XviD 1.2.1 (UTC 2008-12-04)\n\nAudio\nID                               : 1\nFormat                           : MPEG Audio\nFormat version                   : Version 1\nFormat profile                   : Layer 3\nCodec ID                         : 55\nCodec ID/Hint                    : MP3\nDuration                         : 44mn 31s\nBit rate mode                    : Variable\nBit rate                         : 107 Kbps\nNominal bit rate                 : 128 Kbps\nChannel(s)                       : 2 channels\nSampling rate                    : 48.0 KHz\nResolution                       : 16 bits\nStream size                      : 34.1 MiB (10%)\nAlignment                        : Aligned on interleaves\nInterleave, duration             : 24 ms (0.58 video frame)\nInterleave, preload duration     : 534 ms\nWriting library                  : LAME3.98r\nEncoding settings                : -m j -V 4 -q 2 -lowpass 17 --abr 128\n\n","torrent":{"xt":"urn:btih:2ea0a16a67ff35a6eff865598215bfb6925bb218","amp;dn":"7th+Heaven+4x22+Season+Finale+DVDRip+PROPER+RESEED+%2A%24HR%21MP%21%2A","amp;tr":["udp%3A%2F%2Ftracker.openbittorrent.com%3A80","udp%3A%2F%2Fopen.demonii.com%3A1337","udp%3A%2F%2Ftracker.coppersurfer.tk%3A6969","udp%3A%2F%2Fexodus.desync.com%3A6969"],"infoHash":"2ea0a16a67ff35a6eff865598215bfb6925bb218","infoHashBuffer":{"type":"Buffer","data":[46,160,161,106,103,255,53,166,239,248,101,89,130,21,191,182,146,91,178,24]},"announce":[],"urlList":[]}}